<svg height="456pt" viewBox="0 0 456 456" width="456pt" xmlns="http://www.w3.org/2000/svg"><path d="m56 456h336c30.914062-.035156 55.964844-25.085938 56-56 0-4.417969-3.582031-8-8-8h-146.71875c28.890625-13.964844 52.945312-36.253906 69.070312-64h69.648438c13.253906 0 24-10.746094 24-24v-88c0-13.253906-10.746094-24-24-24h-48v-24c0-4.417969-3.582031-8-8-8h-304c-4.417969 0-8 3.582031-8 8v80c.097656 61.433594 35.347656 117.390625 90.71875 144h-146.71875c-4.417969 0-8 3.582031-8 8 .0351562 30.914062 25.085938 55.964844 56 56zm376-248c4.417969 0 8 3.582031 8 8v88c0 4.417969-3.582031 8-8 8h-61.457031c2.316406-5.21875 4.34375-10.5625 6.082031-16h47.375v-72h-40v-16zm-48 32h24v40h-27.199219c2.136719-10.53125 3.207031-21.253906 3.199219-32zm-304 8v-72h288v72c0 79.527344-64.472656 144-144 144s-144-64.472656-144-144zm351.199219 160c-3.824219 18.613281-20.199219 31.980469-39.199219 32h-336c-19-.019531-35.375-13.386719-39.199219-32zm0 0"/><path d="m219.558594 108c-8.710938 5.816406-19.558594 13.046875-19.558594 28 0 4.417969 3.582031 8 8 8s8-3.582031 8-8c0-6.097656 4.496094-9.382812 12.441406-14.679688 8.710938-5.816406 19.558594-13.046874 19.558594-28 0-14.953124-10.847656-22.183593-19.558594-28-7.953125-5.320312-12.441406-8.585937-12.441406-14.671874 0-6.089844 4.488281-9.375 12.441406-14.664063 8.710938-5.816406 19.558594-13.039063 19.558594-27.984375 0-4.417969-3.582031-8-8-8s-8 3.582031-8 8c0 6.078125-4.496094 9.375-12.441406 14.664062-8.710938 5.816407-19.558594 13.039063-19.558594 27.984376 0 14.945312 10.847656 22.183593 19.558594 28 7.945312 5.289062 12.441406 8.550781 12.441406 14.679687s-4.496094 9.375-12.441406 14.671875zm0 0"/><path d="m275.558594 108c-8.710938 5.816406-19.558594 13.046875-19.558594 28 0 4.417969 3.582031 8 8 8s8-3.582031 8-8c0-6.097656 4.496094-9.382812 12.441406-14.679688 8.710938-5.816406 19.558594-13.046874 19.558594-28 0-14.953124-10.847656-22.183593-19.558594-28-7.953125-5.320312-12.441406-8.585937-12.441406-14.671874 0-6.089844 4.488281-9.375 12.441406-14.664063 8.710938-5.816406 19.558594-13.039063 19.558594-27.984375 0-4.417969-3.582031-8-8-8s-8 3.582031-8 8c0 6.078125-4.496094 9.375-12.441406 14.664062-8.710938 5.816407-19.558594 13.039063-19.558594 27.984376 0 14.945312 10.847656 22.183593 19.558594 28 7.945312 5.289062 12.441406 8.550781 12.441406 14.679687s-4.496094 9.375-12.441406 14.671875zm0 0"/><path d="m163.558594 108c-8.710938 5.816406-19.558594 13.046875-19.558594 28 0 4.417969 3.582031 8 8 8s8-3.582031 8-8c0-6.097656 4.496094-9.382812 12.441406-14.679688 8.710938-5.816406 19.558594-13.046874 19.558594-28 0-14.953124-10.847656-22.183593-19.558594-28-7.953125-5.320312-12.441406-8.585937-12.441406-14.671874 0-6.089844 4.488281-9.375 12.441406-14.664063 8.710938-5.816406 19.558594-13.039063 19.558594-27.984375 0-4.417969-3.582031-8-8-8s-8 3.582031-8 8c0 6.078125-4.496094 9.375-12.441406 14.664062-8.710938 5.816407-19.558594 13.039063-19.558594 27.984376 0 14.945312 10.847656 22.183593 19.558594 28 7.945312 5.289062 12.441406 8.550781 12.441406 14.679687s-4.496094 9.375-12.441406 14.671875zm0 0"/><path d="m201.945312 360.238281c-88.648437-22.160156-89.945312-116.238281-89.945312-120.238281 0-4.417969-3.582031-8-8-8s-8 3.582031-8 8c0 1.105469 1.167969 110.535156 102.054688 135.761719.636718.160156 1.289062.238281 1.945312.238281 4.039062-.003906 7.4375-3.015625 7.929688-7.023438.492187-4.007812-2.078126-7.753906-5.992188-8.738281zm0 0"/><path d="m104 216c4.417969 0 8-3.582031 8-8v-8c0-4.417969-3.582031-8-8-8s-8 3.582031-8 8v8c0 4.417969 3.582031 8 8 8zm0 0"/></svg>