<svg width="36" height="32" viewBox="0 0 36 32" fill="none" xmlns="http://www.w3.org/2000/svg">
<path d="M12.2197 23.4268C11.9268 23.1339 11.9268 22.659 12.2197 22.3661L32.4166 2.16919L32.3724 2.125L26.75 2.14637C26.3358 2.14637 26 1.81056 26 1.39637V0.771438C26 0.357188 26.3358 0.0214375 26.75 0.0214375L35.25 0C35.6642 0 36 0.33575 36 0.75L35.9786 9.25C35.9786 9.66419 35.6427 10 35.2286 10H34.6036C34.1894 10 33.8536 9.66419 33.8536 9.25L33.875 3.62762L33.8308 3.58344L13.6339 23.7803C13.3411 24.0732 12.8662 24.0732 12.5732 23.7803L12.2197 23.4268V23.4268ZM26.7197 13.6997L26.2197 14.1997C26.079 14.3403 26 14.5311 26 14.73V29C26 29.5523 25.5523 30 25 30H3C2.44775 30 2 29.5523 2 29V7C2 6.44769 2.44775 6 3 6H24.2485C24.4474 6 24.6382 5.921 24.7788 5.78031L25.2788 5.28031C25.7513 4.80781 25.4167 4 24.7485 4H3C1.34312 4 0 5.34312 0 7V29C0 30.6569 1.34312 32 3 32H25C26.6569 32 28 30.6569 28 29V14.2301C28 13.5619 27.1921 13.2273 26.7197 13.6997V13.6997Z" fill="#000000"/>
</svg>
