<?xml version="1.0" encoding="utf-8"?>
<!-- Generator: Adobe Illustrator 23.0.1, SVG Export Plug-In . SVG Version: 6.00 Build 0)  -->
<svg version="1.1" id="wordpressowka" xmlns="http://www.w3.org/2000/svg" xmlns:xlink="http://www.w3.org/1999/xlink" x="0px"
	 y="0px" viewBox="0 0 627 452" style="enable-background:new 0 0 627 452;" xml:space="preserve">
<style type="text/css">
	.st0{fill:#4F557D;}
	.st1{fill:#FFFFFF;}
</style>
<g id="sygnet">
	<path id="sowka" class="st0" d="M398.5,57c-4.1-9.7-4.9-18.2-3-25.8c3.2-4.1,8.4-6.3,14.6-7.7c-4-0.8-7.8-1-11.5-0.7
		c4.5-8.4,12.1-15.6,21.6-22.1c-20.6,4.3-38.3,12.5-47.7,33.9c-36.2-22.5-84.9-24.6-119.9-1.7c-9.5-20-26.9-28.1-46.9-32.2
		c9.5,6.5,17.1,13.7,21.6,22.1c-3.6-0.4-7.4-0.1-11.2,0.7c5.9,1.3,11.1,3.4,14.2,7.3c2,8,1.2,16.9-3.4,27.3
		c-26.7,35.4-26.6,91.6,3.8,124.8c7.8,8.5,18.7,16.7,29.3,21.6c14.9,6.8,30,12.2,46.4,14.1c40.7,4.8,12.8,60.8,12.8,60.8
		c73.1-24.2,92-99.1,95.7-108v-0.1C430.6,122.3,420.7,83.5,398.5,57z"/>
	<g id="wordpress">
		<path class="st1" d="M253.8,118.2c0,22.9,13.4,42.7,32.9,52.2l-27.8-75.7C255.6,101.8,253.8,109.8,253.8,118.2z"/>
		<path class="st1" d="M351.5,115.3c0-7.2-2.6-12.2-4.9-15.9c-2.9-4.8-5.8-8.8-5.8-13.6c0-5.4,4.1-10.3,9.8-10.3c0.3,0,0.5,0,0.8,0
			C341,66,327.2,60.3,312,60.3c-20.4,0-38.3,10.3-48.8,26.1c1.3,0,2.6,0.1,3.8,0.1c6.1,0,15.5-0.8,15.5-0.8c3.2-0.1,3.6,4.4,0.4,4.8
			c0,0-3.2,0.4-6.7,0.5l21.2,62.7l12.8-38l-9.1-24.7c-3.2-0.1-6.1-0.5-6.1-0.5c-3.2-0.1-2.8-5,0.4-4.8c0,0,9.6,0.8,15.4,0.8
			c6.1,0,15.5-0.8,15.5-0.8c3.2-0.1,3.6,4.4,0.4,4.8c0,0-3.2,0.4-6.7,0.5l21.1,62.4l5.8-19.3C349.7,126,351.5,120.3,351.5,115.3z"/>
		<path class="st1" d="M313.2,123.3l-17.5,50.5c5.3,1.6,10.8,2.4,16.5,2.4c6.9,0,13.3-1.2,19.4-3.3c-0.1-0.3-0.3-0.5-0.4-0.8
			L313.2,123.3z"/>
		<path class="st1" d="M363.4,90.3c0.3,1.8,0.4,3.8,0.4,6c0,5.9-1.1,12.5-4.5,20.8l-17.8,51.1c17.4-10.1,29-28.8,29-50.1
			C370.5,108.1,368,98.6,363.4,90.3z"/>
		<path class="st1" d="M312.2,50.6c-37.6,0-68.1,30.3-68.1,67.6c0,37.3,30.6,67.6,68.1,67.6c37.6,0,68.1-30.3,68.1-67.6
			C380.3,80.9,349.7,50.6,312.2,50.6z M312.2,182.6c-35.8,0-65-28.9-65-64.4c0-35.6,29.1-64.4,65-64.4c35.8,0,65,28.9,65,64.4
			C377.1,153.7,348,182.6,312.2,182.6z"/>
	</g>
</g>
<g id="napis">
	<path class="st0" d="M66.2,356.6l-13,45.5H40.9l-7.5-28.6l-7,28.6H14.2l-13.6-45l12-1.2l8,31.6l6.8-30.9h12.1l7.8,30.9l6.8-30.9
		H66.2z"/>
	<path class="st0" d="M92.3,355.7c-4.5,0-8.5,1-12.1,3.1c-3.6,2-6.4,4.8-8.4,8.5c-2,3.6-3,7.7-3,12.3c0,4.4,1,8.3,2.9,11.9
		c1.9,3.6,4.6,6.4,8.2,8.5c3.6,2.1,7.7,3.1,12.4,3.1c4.6,0,8.7-1,12.2-3c3.6-2.1,6.3-4.9,8.3-8.5c2-3.7,3-7.8,3-12.4
		c0-4.4-1-8.3-2.9-11.9c-1.9-3.6-4.6-6.4-8.2-8.4C101.3,356.7,97.1,355.7,92.3,355.7z M81.3,379.5c0-2.7,0.5-5,1.5-7.1
		c1-2.1,2.4-3.7,4-4.8c1.7-1.2,3.6-1.7,5.6-1.7c3.3,0,5.9,1.2,7.9,3.7c2,2.5,3,5.6,3,9.5c0,4.4-1,7.8-3.1,10.2
		c-2.1,2.4-4.7,3.5-8,3.5c-3.4,0-6.1-1.2-8-3.7C82.3,386.6,81.3,383.4,81.3,379.5z"/>
	<path class="st0" d="M123.2,402.1h12.2v-14.3h8.1l7.4,14.3h14.1l-10-17.9c1.9-1.3,3.4-2.9,4.5-4.9c1.1-2.1,1.7-4.4,1.7-7.1
		c0-5.2-1.8-9.1-5.3-11.6c-3.5-2.6-8-3.9-13.4-3.9h-19.1V402.1z M141.9,366.2c2.1,0,3.7,0.5,4.8,1.5c1.2,1,1.7,2.5,1.7,4.4
		c0,1.8-0.6,3.3-1.8,4.4c-1.2,1.1-2.7,1.7-4.6,1.7h-6.7v-12H141.9z"/>
	<path class="st0" d="M191.3,402.1c4.2,0,8-0.9,11.3-2.8c3.3-1.9,5.9-4.5,7.7-8c1.8-3.5,2.7-7.5,2.7-12.2c0-4.4-0.8-8.3-2.5-11.6
		c-1.7-3.4-4.1-6-7.4-8c-3.2-1.9-7.1-2.9-11.6-2.9h-20.6v45.5H191.3z M190.9,366.2c3,0,5.3,1.2,7,3.6c1.7,2.4,2.5,5.5,2.5,9.3
		c0,4.3-0.9,7.6-2.8,10c-1.8,2.3-4.2,3.5-7.2,3.5h-7.4v-26.4H190.9z"/>
	<path class="st0" d="M232.6,388.9h6.4c3.4,0,6.6-0.6,9.5-1.7c2.9-1.2,5.3-2.9,7.1-5.3c1.8-2.4,2.7-5.4,2.7-8.8c0-3.5-0.8-6.5-2.5-9
		c-1.7-2.5-3.9-4.3-6.8-5.6c-2.8-1.2-6-1.9-9.4-1.9h-19.1v45.5h12.2V388.9z M239.1,366.2c2,0,3.6,0.6,4.7,1.9
		c1.2,1.2,1.8,2.9,1.8,4.9c0,1.8-0.6,3.3-1.8,4.5c-1.2,1.2-2.7,1.8-4.6,1.8h-6.7v-13.1H239.1z"/>
	<path class="st0" d="M264.9,402.1h12.2v-14.3h8.1l7.4,14.3h14.1l-10-17.9c1.9-1.3,3.4-2.9,4.5-4.9c1.1-2.1,1.7-4.4,1.7-7.1
		c0-5.2-1.8-9.1-5.3-11.6c-3.5-2.6-8-3.9-13.4-3.9h-19.1V402.1z M283.7,366.2c2.1,0,3.7,0.5,4.8,1.5c1.2,1,1.7,2.5,1.7,4.4
		c0,1.8-0.6,3.3-1.8,4.4c-1.2,1.1-2.7,1.7-4.6,1.7h-6.7v-12H283.7z"/>
	<path class="st0" d="M346,402.1l-1.1-9.6h-20v-8.5H340l-1.1-9.6h-14v-8.3H344l-1.1-9.6h-30.2v45.5H346z"/>
	<path class="st0" d="M349.5,399.3c1.7,1,4.1,1.9,7,2.6c2.9,0.7,5.6,1.1,8,1.1c3.7,0,6.8-0.6,9.6-1.7c2.8-1.2,4.9-2.7,6.4-4.7
		c1.5-2,2.2-4.3,2.2-6.9c0-2.3-0.7-4.4-2-6.2c-1.3-1.9-2.9-3.5-4.8-4.8c-1.9-1.4-4.2-2.9-7-4.5l-2.4-1.3c-1.6-0.8-2.8-1.5-3.5-2
		c-0.7-0.5-1-1.1-1-1.8c0-0.9,0.4-1.6,1.2-2.3c0.8-0.6,1.9-0.9,3.3-0.9c1.5,0,2.9,0.1,4.1,0.4c1.3,0.3,3.1,0.8,5.5,1.6l3.6-8.2
		c-1.7-1.2-3.8-2.1-6.3-2.7c-2.4-0.7-4.8-1-7.1-1c-3.4,0-6.4,0.6-8.9,1.7c-2.5,1.1-4.5,2.7-6,4.7c-1.4,2-2.1,4.2-2.1,6.7
		c0,2.4,0.7,4.5,2,6.4c1.3,1.9,2.9,3.4,4.5,4.6c1.7,1.2,4.1,2.6,7.1,4.4l2.1,1.2c1.7,1,3,1.8,3.7,2.4c0.8,0.5,1.2,1.1,1.2,1.7
		c0,0.9-0.5,1.7-1.6,2.5c-1.1,0.7-2.5,1.1-4.3,1.1c-1.6,0-3.5-0.3-5.6-0.9c-2.1-0.6-3.7-1.3-5-2L349.5,399.3z"/>
	<path class="st0" d="M386.1,399.3c1.7,1,4.1,1.9,7,2.6c2.9,0.7,5.6,1.1,8,1.1c3.7,0,6.8-0.6,9.6-1.7c2.8-1.2,4.9-2.7,6.4-4.7
		c1.5-2,2.2-4.3,2.2-6.9c0-2.3-0.7-4.4-2-6.2c-1.3-1.9-2.9-3.5-4.7-4.8c-1.9-1.4-4.2-2.9-7-4.5l-2.4-1.3c-1.6-0.8-2.8-1.5-3.5-2
		c-0.7-0.5-1-1.1-1-1.8c0-0.9,0.4-1.6,1.2-2.3c0.8-0.6,1.9-0.9,3.3-0.9c1.5,0,2.9,0.1,4.1,0.4c1.3,0.3,3.1,0.8,5.5,1.6l3.6-8.2
		c-1.7-1.2-3.8-2.1-6.3-2.7c-2.4-0.7-4.8-1-7.1-1c-3.4,0-6.4,0.6-8.9,1.7c-2.5,1.1-4.5,2.7-6,4.7c-1.4,2-2.1,4.2-2.1,6.7
		c0,2.4,0.7,4.5,2,6.4c1.3,1.9,2.9,3.4,4.5,4.6c1.7,1.2,4.1,2.6,7.1,4.4l2.1,1.2c1.7,1,3,1.8,3.7,2.4c0.8,0.5,1.2,1.1,1.2,1.7
		c0,0.9-0.5,1.7-1.6,2.5c-1.1,0.7-2.5,1.1-4.3,1.1c-1.6,0-3.5-0.3-5.6-0.9c-2.1-0.6-3.7-1.3-4.9-2L386.1,399.3z"/>
	<path class="st0" d="M460.7,355.7c-4.5,0-8.5,1-12.1,3.1c-3.6,2-6.4,4.8-8.4,8.5c-2,3.6-3,7.7-3,12.3c0,4.4,1,8.3,2.9,11.9
		c1.9,3.6,4.6,6.4,8.2,8.5c3.6,2.1,7.7,3.1,12.4,3.1c4.6,0,8.7-1,12.2-3c3.6-2.1,6.3-4.9,8.3-8.5c2-3.7,3-7.8,3-12.4
		c0-4.4-1-8.3-2.9-11.9c-1.9-3.6-4.6-6.4-8.2-8.4C469.6,356.7,465.5,355.7,460.7,355.7z M449.7,379.5c0-2.7,0.5-5,1.5-7.1
		c1-2.1,2.4-3.7,4-4.8c1.7-1.2,3.6-1.7,5.6-1.7c3.3,0,5.9,1.2,7.9,3.7c2,2.5,3,5.6,3,9.5c0,4.4-1,7.8-3.1,10.2
		c-2.1,2.4-4.7,3.5-8,3.5c-3.4,0-6.1-1.2-8-3.7C450.6,386.6,449.7,383.4,449.7,379.5z"/>
	<path class="st0" d="M552.4,356.6l-13,45.5h-12.2l-7.5-28.6l-7,28.6h-12.2l-13.6-45l12-1.2l8,31.6l6.8-30.9h12.1l7.8,30.9l6.8-30.9
		H552.4z"/>
	<path class="st0" d="M589.9,392.6h-19.3v-35.9h-12.2v45.5h32.6L589.9,392.6z"/>
	<path class="st0" d="M594,399.3c1.7,1,4.1,1.9,7,2.6c2.9,0.7,5.6,1.1,8,1.1c3.7,0,6.8-0.6,9.6-1.7c2.8-1.2,4.9-2.7,6.4-4.7
		c1.5-2,2.2-4.3,2.2-6.9c0-2.3-0.7-4.4-2-6.2c-1.3-1.9-2.9-3.5-4.7-4.8c-1.9-1.4-4.2-2.9-7-4.5l-2.4-1.3c-1.6-0.8-2.8-1.5-3.5-2
		c-0.7-0.5-1-1.1-1-1.8c0-0.9,0.4-1.6,1.2-2.3c0.8-0.6,1.9-0.9,3.3-0.9c1.5,0,2.9,0.1,4.1,0.4c1.3,0.3,3.1,0.8,5.5,1.6l3.6-8.2
		c-1.7-1.2-3.8-2.1-6.3-2.7c-2.4-0.7-4.8-1-7.1-1c-3.4,0-6.4,0.6-8.9,1.7c-2.5,1.1-4.5,2.7-6,4.7c-1.4,2-2.1,4.2-2.1,6.7
		c0,2.4,0.7,4.5,2,6.4c1.3,1.9,2.9,3.4,4.5,4.6c1.7,1.2,4.1,2.6,7.1,4.4l2.1,1.2c1.7,1,3,1.8,3.7,2.4c0.8,0.5,1.2,1.1,1.2,1.7
		c0,0.9-0.5,1.7-1.6,2.5c-1.1,0.7-2.5,1.1-4.3,1.1c-1.6,0-3.5-0.3-5.6-0.9c-2.1-0.6-3.7-1.3-5-2L594,399.3z"/>
	<path class="st0" d="M116.3,449.9c0.5,0.3,1.2,0.6,2.2,0.8c1,0.2,1.9,0.4,2.7,0.4c1.3,0,2.4-0.2,3.4-0.6c1-0.4,1.7-1,2.2-1.7
		c0.5-0.7,0.8-1.5,0.8-2.4c0-0.8-0.2-1.6-0.5-2.2c-0.4-0.6-0.9-1.2-1.6-1.6c-0.7-0.5-1.6-1-2.7-1.5c-1.2-0.6-2.2-1-2.8-1.4
		c-0.6-0.4-1.1-0.8-1.5-1.2c-0.3-0.5-0.5-1-0.5-1.6c0-0.8,0.3-1.5,1-2c0.7-0.5,1.6-0.7,2.8-0.7c0.8,0,1.4,0.1,2,0.2
		c0.5,0.2,1.1,0.4,1.8,0.7l0.7-1.6c-0.6-0.3-1.3-0.6-2.1-0.8c-0.8-0.2-1.6-0.3-2.4-0.3c-1.1,0-2.2,0.2-3,0.6c-0.9,0.4-1.5,0.9-2,1.6
		c-0.5,0.7-0.7,1.4-0.7,2.3c0,1.2,0.4,2.2,1.1,3c0.8,0.8,2,1.6,3.6,2.3c1.1,0.5,2,0.9,2.7,1.3c0.7,0.4,1.2,0.8,1.5,1.3
		c0.4,0.5,0.5,1,0.5,1.6c0,0.9-0.4,1.6-1.1,2.1c-0.7,0.5-1.8,0.8-3.2,0.8c-0.8,0-1.6-0.1-2.4-0.3c-0.8-0.2-1.5-0.5-2-0.8
		L116.3,449.9z"/>
	<path class="st0" d="M144.9,432.8h-14.1v1.6h6v16.3h2.1v-16.3h6.2L144.9,432.8z"/>
	<path class="st0" d="M154.4,432.8l-6.6,17.9h2l1.9-5.1h7.6l2,5.3l2.1-0.3l-6.9-17.8H154.4z M158.6,444h-6.4l3.1-8.4L158.6,444z"/>
	<path class="st0" d="M173.9,450.8l0-7.3l6.3-10.6H178l-5.1,8.7l-5-9.1l-2,0.8l5.9,10.3v7.2H173.9z"/>
	<path class="st0" d="M204.9,433.5c-0.5-0.3-1.2-0.6-2.1-0.7c-0.9-0.2-1.7-0.3-2.3-0.3c-1.7,0-3.2,0.4-4.5,1.2c-1.3,0.8-2.3,2-3,3.4
		c-0.7,1.4-1,3-1,4.8c0,1.7,0.3,3.2,0.9,4.6c0.6,1.4,1.6,2.5,2.8,3.3c1.2,0.8,2.8,1.2,4.5,1.2c0.8,0,1.6-0.1,2.5-0.3
		c0.9-0.2,1.6-0.4,2.2-0.7l-0.8-1.6c-0.5,0.2-1.1,0.4-1.8,0.6c-0.6,0.1-1.3,0.2-2.2,0.2c-1.2,0-2.3-0.3-3.2-1
		c-0.9-0.7-1.6-1.6-2.1-2.7c-0.5-1.1-0.7-2.4-0.7-3.8c0-1.5,0.3-2.8,0.8-3.9c0.5-1.2,1.3-2.1,2.2-2.7c1-0.6,2-1,3.2-1
		c0.8,0,1.5,0.1,2,0.2c0.5,0.1,1.1,0.3,1.8,0.6L204.9,433.5z"/>
	<path class="st0" d="M217.2,432.4c-1.6,0-3.1,0.5-4.3,1.3c-1.3,0.8-2.3,2-3,3.4c-0.7,1.4-1.1,3-1.1,4.8c0,1.8,0.4,3.4,1.1,4.8
		c0.7,1.4,1.7,2.5,3,3.3c1.3,0.8,2.7,1.2,4.3,1.2c1.6,0,3.1-0.4,4.4-1.3c1.3-0.8,2.3-2,3-3.4c0.7-1.4,1.1-3,1.1-4.8
		c0-1.8-0.4-3.4-1.1-4.8s-1.7-2.5-3-3.3C220.3,432.8,218.8,432.4,217.2,432.4z M210.9,441.9c0-1.5,0.3-2.8,0.8-3.9
		c0.5-1.2,1.3-2.1,2.2-2.7c1-0.7,2.1-1,3.3-1c1.2,0,2.2,0.3,3.1,1c0.9,0.6,1.7,1.5,2.2,2.7c0.5,1.1,0.8,2.4,0.8,3.8
		c0,1.5-0.3,2.8-0.8,3.9c-0.5,1.2-1.3,2.1-2.3,2.7c-0.9,0.6-2,1-3.2,1c-1.2,0-2.2-0.3-3.2-0.9c-0.9-0.6-1.6-1.5-2.2-2.7
		C211.2,444.6,210.9,443.3,210.9,441.9z"/>
	<path class="st0" d="M238.4,432.4c-1.6,0-3.1,0.5-4.3,1.3c-1.3,0.8-2.3,2-3,3.4c-0.7,1.4-1.1,3-1.1,4.8c0,1.8,0.4,3.4,1.1,4.8
		c0.7,1.4,1.7,2.5,3,3.3c1.3,0.8,2.7,1.2,4.3,1.2c1.6,0,3.1-0.4,4.4-1.3c1.3-0.8,2.3-2,3-3.4c0.7-1.4,1.1-3,1.1-4.8
		c0-1.8-0.4-3.4-1.1-4.8s-1.7-2.5-3-3.3C241.5,432.8,240,432.4,238.4,432.4z M232.1,441.9c0-1.5,0.3-2.8,0.8-3.9
		c0.5-1.2,1.3-2.1,2.2-2.7c1-0.7,2.1-1,3.3-1c1.2,0,2.2,0.3,3.1,1c0.9,0.6,1.7,1.5,2.2,2.7c0.5,1.1,0.8,2.4,0.8,3.8
		c0,1.5-0.3,2.8-0.8,3.9c-0.5,1.2-1.3,2.1-2.3,2.7c-0.9,0.6-2,1-3.2,1c-1.2,0-2.2-0.3-3.2-0.9c-0.9-0.6-1.6-1.5-2.2-2.7
		C232.4,444.6,232.1,443.3,232.1,441.9z"/>
	<path class="st0" d="M262.9,449.1h-8.3v-16.3h-2.1v17.9h10.6L262.9,449.1z"/>
	<path class="st0" d="M296,432.8l-4.9,17.9h-2L285,436l-3.9,14.8h-2L274,433l2.1-0.3l4.1,15.3l3.9-15.1h2l4.1,15.1l3.9-15.1H296z"/>
	<path class="st0" d="M303,450.8v-17.9h-2.1v17.9H303z"/>
	<path class="st0" d="M321.8,432.8h-14.1v1.6h6v16.3h2.1v-16.3h6.2L321.8,432.8z"/>
	<path class="st0" d="M339.5,450.8v-17.9h-2.1v8H329v-8.2l-2.1,0.1v17.9h2.1v-8.2h8.4v8.2H339.5z"/>
	<path class="st0" d="M374.6,432.8l-4.9,17.9h-2l-4.1-14.8l-3.9,14.8h-2l-5.2-17.8l2.1-0.3l4.1,15.3l3.9-15.1h2l4.1,15.1l3.9-15.1
		H374.6z"/>
	<path class="st0" d="M386.6,432.4c-1.6,0-3.1,0.5-4.3,1.3c-1.3,0.8-2.3,2-3,3.4c-0.7,1.4-1.1,3-1.1,4.8c0,1.8,0.4,3.4,1.1,4.8
		c0.7,1.4,1.7,2.5,3,3.3c1.3,0.8,2.7,1.2,4.3,1.2c1.6,0,3.1-0.4,4.4-1.3c1.3-0.8,2.3-2,3-3.4c0.7-1.4,1.1-3,1.1-4.8
		c0-1.8-0.4-3.4-1.1-4.8s-1.7-2.5-3-3.3C389.6,432.8,388.2,432.4,386.6,432.4z M380.3,441.9c0-1.5,0.3-2.8,0.8-3.9
		c0.5-1.2,1.3-2.1,2.2-2.7c1-0.7,2.1-1,3.3-1c1.2,0,2.2,0.3,3.1,1c0.9,0.6,1.7,1.5,2.2,2.7c0.5,1.1,0.8,2.4,0.8,3.8
		c0,1.5-0.3,2.8-0.8,3.9c-0.5,1.2-1.3,2.1-2.3,2.7c-0.9,0.6-2,1-3.2,1c-1.2,0-2.2-0.3-3.2-0.9c-0.9-0.6-1.6-1.5-2.2-2.7
		C380.6,444.6,380.3,443.3,380.3,441.9z"/>
	<path class="st0" d="M400.6,450.8h2.1v-7.4h2.5c0.6,0,1.2,0,1.9-0.1l4.1,7.5h2.3l-4.6-8c1-0.4,1.7-1,2.3-1.8
		c0.6-0.8,0.9-1.8,0.9-2.9c0-1.8-0.6-3.1-1.8-4c-1.2-0.8-2.8-1.3-4.8-1.3h-4.9V450.8z M405.5,434.6c1.4,0,2.5,0.3,3.3,0.8
		c0.8,0.5,1.2,1.4,1.2,2.7c0,1.3-0.5,2.2-1.3,2.7c-0.8,0.5-2,0.8-3.3,0.8h-2.6v-7.1H405.5z"/>
	<path class="st0" d="M424.4,450.8c1.7,0,3.2-0.4,4.3-1.2c1.2-0.8,2.1-1.9,2.7-3.2c0.6-1.4,0.9-2.9,0.9-4.7c0-2.6-0.6-4.8-1.9-6.4
		c-1.3-1.6-3.3-2.5-5.9-2.5h-6.3v17.9H424.4z M424.7,434.6c1.9,0,3.3,0.6,4.2,2c1,1.3,1.4,3,1.4,5.2c0,1.5-0.2,2.8-0.7,3.9
		c-0.5,1.1-1.2,1.9-2.1,2.5c-0.9,0.6-1.9,0.9-3.1,0.9h-4.1v-14.4H424.7z"/>
	<path class="st0" d="M440.2,444h2.5c2,0,3.6-0.5,4.9-1.4c1.3-1,1.9-2.4,1.9-4.2c0-1.9-0.6-3.3-1.8-4.1c-1.2-0.9-2.8-1.3-4.8-1.3
		h-4.9v17.9h2.1V444z M443,434.6c1.5,0,2.6,0.3,3.3,0.9c0.8,0.6,1.1,1.5,1.1,2.9c0,1.3-0.5,2.3-1.3,2.9c-0.8,0.6-2,0.9-3.3,0.9h-2.6
		v-7.6H443z"/>
	<path class="st0" d="M455,450.8h2.1v-7.4h2.5c0.6,0,1.2,0,1.9-0.1l4.1,7.5h2.3l-4.6-8c1-0.4,1.7-1,2.3-1.8c0.6-0.8,0.9-1.8,0.9-2.9
		c0-1.8-0.6-3.1-1.8-4c-1.2-0.8-2.8-1.3-4.8-1.3H455V450.8z M459.9,434.6c1.4,0,2.5,0.3,3.3,0.8c0.8,0.5,1.2,1.4,1.2,2.7
		c0,1.3-0.5,2.2-1.3,2.7c-0.8,0.5-2,0.8-3.3,0.8h-2.6v-7.1H459.9z"/>
	<path class="st0" d="M483.5,450.8l-0.3-1.7h-8.5v-6.7h6.4l-0.2-1.6h-6.2v-6.4h7.9l-0.2-1.6h-9.8v17.9H483.5z"/>
	<path class="st0" d="M487.6,449.9c0.5,0.3,1.2,0.6,2.2,0.8c1,0.2,1.9,0.4,2.7,0.4c1.3,0,2.4-0.2,3.4-0.6c1-0.4,1.7-1,2.2-1.7
		c0.5-0.7,0.8-1.5,0.8-2.4c0-0.8-0.2-1.6-0.5-2.2c-0.4-0.6-0.9-1.2-1.6-1.6c-0.7-0.5-1.6-1-2.7-1.5c-1.2-0.6-2.2-1-2.8-1.4
		c-0.6-0.4-1.1-0.8-1.5-1.2c-0.3-0.5-0.5-1-0.5-1.6c0-0.8,0.3-1.5,1-2c0.7-0.5,1.6-0.7,2.8-0.7c0.8,0,1.4,0.1,2,0.2
		c0.5,0.2,1.1,0.4,1.8,0.7l0.7-1.6c-0.6-0.3-1.3-0.6-2.1-0.8c-0.8-0.2-1.6-0.3-2.4-0.3c-1.1,0-2.2,0.2-3,0.6c-0.9,0.4-1.5,0.9-2,1.6
		c-0.5,0.7-0.7,1.4-0.7,2.3c0,1.2,0.4,2.2,1.1,3c0.8,0.8,2,1.6,3.6,2.3c1.1,0.5,2,0.9,2.7,1.3c0.7,0.4,1.2,0.8,1.5,1.3
		c0.4,0.5,0.5,1,0.5,1.6c0,0.9-0.4,1.6-1.1,2.1c-0.7,0.5-1.8,0.8-3.2,0.8c-0.8,0-1.6-0.1-2.4-0.3c-0.8-0.2-1.5-0.5-2-0.8
		L487.6,449.9z"/>
	<path class="st0" d="M503.2,449.9c0.5,0.3,1.2,0.6,2.2,0.8c1,0.2,1.9,0.4,2.7,0.4c1.3,0,2.4-0.2,3.4-0.6c1-0.4,1.7-1,2.2-1.7
		c0.5-0.7,0.8-1.5,0.8-2.4c0-0.8-0.2-1.6-0.5-2.2c-0.4-0.6-0.9-1.2-1.6-1.6c-0.7-0.5-1.6-1-2.7-1.5c-1.2-0.6-2.2-1-2.8-1.4
		c-0.6-0.4-1.1-0.8-1.5-1.2c-0.3-0.5-0.5-1-0.5-1.6c0-0.8,0.3-1.5,1-2c0.7-0.5,1.6-0.7,2.8-0.7c0.8,0,1.4,0.1,2,0.2
		c0.5,0.2,1.1,0.4,1.8,0.7l0.7-1.6c-0.6-0.3-1.3-0.6-2.1-0.8c-0.8-0.2-1.6-0.3-2.5-0.3c-1.1,0-2.2,0.2-3,0.6c-0.9,0.4-1.5,0.9-2,1.6
		c-0.5,0.7-0.7,1.4-0.7,2.3c0,1.2,0.4,2.2,1.1,3c0.8,0.8,2,1.6,3.6,2.3c1.1,0.5,2,0.9,2.7,1.3c0.7,0.4,1.2,0.8,1.5,1.3
		c0.4,0.5,0.5,1,0.5,1.6c0,0.9-0.4,1.6-1.1,2.1c-0.7,0.5-1.8,0.8-3.2,0.8c-0.8,0-1.6-0.1-2.4-0.3c-0.8-0.2-1.5-0.5-2-0.8
		L503.2,449.9z"/>
</g>
</svg>
