<?xml version="1.0" encoding="utf-8"?>
<!-- Generator: Adobe Illustrator 23.0.1, SVG Export Plug-In . SVG Version: 6.00 Build 0)  -->
<svg version="1.1" id="wordpressowka" xmlns="http://www.w3.org/2000/svg" xmlns:xlink="http://www.w3.org/1999/xlink" x="0px"
	 y="0px" viewBox="0 0 623 452" style="enable-background:new 0 0 623 452;" xml:space="preserve">
<style type="text/css">
	.st0{fill:#4F557D;}
	.st1{fill:#FFFFFF;}
</style>
<g id="sygnet">
	<path id="sowka" class="st0" d="M395.5,57c-4.1-9.7-4.9-18.2-3-25.8c3.2-4.1,8.4-6.3,14.6-7.7c-4-0.8-7.8-1-11.5-0.7
		c4.5-8.4,12.1-15.6,21.6-22.1c-20.6,4.3-38.3,12.5-47.7,33.9c-36.2-22.5-84.9-24.6-119.9-1.7c-9.5-20-26.9-28.1-46.9-32.2
		c9.5,6.5,17.1,13.7,21.6,22.1c-3.6-0.4-7.4-0.1-11.2,0.7c5.9,1.3,11.1,3.4,14.2,7.3c2,8,1.2,16.9-3.4,27.3
		c-26.7,35.4-26.6,91.6,3.8,124.8c7.8,8.5,18.7,16.7,29.3,21.6c14.9,6.8,30,12.2,46.4,14.1c40.7,4.8,12.8,60.8,12.8,60.8
		c73.1-24.2,92-99.1,95.7-108v-0.1C427.6,122.3,417.7,83.5,395.5,57z"/>
	<g id="wordpress">
		<path class="st1" d="M250.8,118.2c0,22.9,13.4,42.7,32.9,52.2l-27.8-75.7C252.6,101.8,250.8,109.8,250.8,118.2z"/>
		<path class="st1" d="M348.6,115.3c0-7.2-2.6-12.2-4.9-15.9c-2.9-4.8-5.8-8.8-5.8-13.6c0-5.4,4.1-10.3,9.8-10.3c0.3,0,0.5,0,0.8,0
			C338,66,324.2,60.3,309,60.3c-20.4,0-38.3,10.3-48.8,26.1c1.3,0,2.6,0.1,3.8,0.1c6.1,0,15.5-0.8,15.5-0.8c3.2-0.1,3.6,4.4,0.4,4.8
			c0,0-3.2,0.4-6.7,0.5l21.2,62.7l12.8-38l-9.1-24.7c-3.2-0.1-6.1-0.5-6.1-0.5c-3.2-0.1-2.8-5,0.4-4.8c0,0,9.6,0.8,15.4,0.8
			c6.1,0,15.5-0.8,15.5-0.8c3.2-0.1,3.6,4.4,0.4,4.8c0,0-3.2,0.4-6.7,0.5l21.1,62.4l5.8-19.3C346.7,126,348.6,120.3,348.6,115.3z"/>
		<path class="st1" d="M310.2,123.3l-17.5,50.5c5.3,1.6,10.8,2.4,16.5,2.4c6.9,0,13.3-1.2,19.4-3.3c-0.1-0.3-0.3-0.5-0.4-0.8
			L310.2,123.3z"/>
		<path class="st1" d="M360.4,90.3c0.3,1.8,0.4,3.8,0.4,6c0,5.9-1.1,12.5-4.5,20.8l-17.8,51.1c17.4-10.1,29-28.8,29-50.1
			C367.5,108.1,365,98.6,360.4,90.3z"/>
		<path class="st1" d="M309.2,50.6c-37.6,0-68.1,30.3-68.1,67.6c0,37.3,30.6,67.6,68.1,67.6c37.6,0,68.1-30.3,68.1-67.6
			C377.3,80.9,346.7,50.6,309.2,50.6z M309.2,182.6c-35.8,0-65-28.9-65-64.4c0-35.6,29.1-64.4,65-64.4c35.8,0,65,28.9,65,64.4
			C374.1,153.7,345,182.6,309.2,182.6z"/>
	</g>
</g>
<g id="nazwa">
	<path class="st0" d="M64.4,356l-12.8,45.2h-12l-7.4-28.4l-6.9,28.4h-12L0,356.6l11.8-1.2l7.8,31.4l6.7-30.7h11.9l7.6,30.7l6.7-30.7
		H64.4z"/>
	<path class="st0" d="M90.1,355.1c-4.4,0-8.4,1-11.9,3.1c-3.5,2-6.2,4.8-8.2,8.4c-2,3.6-3,7.7-3,12.2c0,4.3,0.9,8.3,2.8,11.8
		c1.9,3.5,4.6,6.4,8,8.4c3.5,2,7.6,3.1,12.2,3.1c4.5,0,8.5-1,12-3c3.5-2,6.2-4.8,8.1-8.4c2-3.6,3-7.7,3-12.4c0-4.3-0.9-8.3-2.8-11.8
		c-1.8-3.5-4.5-6.3-8-8.4C98.9,356.1,94.8,355.1,90.1,355.1z M79.3,378.7c0-2.7,0.5-5,1.4-7c1-2.1,2.3-3.7,3.9-4.8
		c1.7-1.2,3.5-1.7,5.5-1.7c3.2,0,5.8,1.2,7.8,3.7c2,2.4,3,5.6,3,9.4c0,4.4-1,7.8-3.1,10.2c-2,2.3-4.6,3.5-7.8,3.5
		c-3.3,0-6-1.2-7.9-3.7C80.2,385.8,79.3,382.6,79.3,378.7z"/>
	<path class="st0" d="M120.4,401.2h12V387h7.9l7.2,14.2h13.9l-9.9-17.8c1.9-1.3,3.4-2.9,4.4-4.9c1.1-2,1.6-4.4,1.6-7
		c0-5.1-1.7-9-5.2-11.6c-3.5-2.6-7.9-3.9-13.2-3.9h-18.8V401.2z M138.8,365.5c2.1,0,3.6,0.5,4.7,1.5c1.1,1,1.7,2.4,1.7,4.4
		c0,1.8-0.6,3.2-1.8,4.4c-1.2,1.1-2.7,1.7-4.5,1.7h-6.6v-12H138.8z"/>
	<path class="st0" d="M187.3,401.2c4.2,0,7.9-0.9,11.1-2.8c3.2-1.9,5.8-4.5,7.6-8s2.7-7.5,2.7-12.1c0-4.3-0.8-8.2-2.4-11.6
		c-1.6-3.4-4-6-7.2-7.9c-3.2-1.9-7-2.9-11.4-2.9h-20.2v45.2H187.3z M187,365.5c2.9,0,5.2,1.2,6.8,3.6c1.7,2.3,2.5,5.4,2.5,9.2
		c0,4.3-0.9,7.6-2.8,9.9c-1.8,2.3-4.1,3.5-7,3.5h-7.2v-26.2H187z"/>
	<path class="st0" d="M227.8,388h6.3c3.4,0,6.5-0.6,9.3-1.7c2.9-1.2,5.2-2.9,7-5.2c1.8-2.4,2.6-5.3,2.6-8.8c0-3.5-0.8-6.5-2.5-8.9
		c-1.6-2.5-3.8-4.3-6.6-5.5c-2.8-1.2-5.8-1.9-9.3-1.9h-18.8v45.2h12V388z M234.3,365.5c2,0,3.5,0.6,4.7,1.9c1.2,1.2,1.8,2.9,1.8,4.9
		c0,1.8-0.6,3.3-1.8,4.5c-1.2,1.2-2.7,1.8-4.5,1.8h-6.6v-13H234.3z"/>
	<path class="st0" d="M259.6,401.2h12V387h7.9l7.2,14.2h13.9l-9.9-17.8c1.9-1.3,3.4-2.9,4.4-4.9c1.1-2,1.6-4.4,1.6-7
		c0-5.1-1.7-9-5.2-11.6c-3.5-2.6-7.9-3.9-13.2-3.9h-18.8V401.2z M278,365.5c2.1,0,3.6,0.5,4.7,1.5c1.1,1,1.7,2.4,1.7,4.4
		c0,1.8-0.6,3.2-1.8,4.4c-1.2,1.1-2.7,1.7-4.5,1.7h-6.6v-12H278z"/>
	<path class="st0" d="M339.3,401.2l-1.1-9.5h-19.6v-8.4h14.8l-1.1-9.5h-13.7v-8.2h18.8l-1.1-9.5h-29.6v45.2H339.3z"/>
	<path class="st0" d="M342.7,398.4c1.7,1,4,1.9,6.8,2.6c2.9,0.7,5.5,1.1,7.8,1.1c3.6,0,6.7-0.6,9.4-1.7c2.7-1.2,4.8-2.7,6.2-4.7
		c1.4-2,2.2-4.3,2.2-6.8c0-2.3-0.7-4.4-2-6.2c-1.3-1.9-2.8-3.5-4.7-4.8c-1.8-1.4-4.1-2.9-6.9-4.5l-2.4-1.3c-1.6-0.8-2.7-1.5-3.4-2
		c-0.7-0.5-1-1.1-1-1.8c0-0.9,0.4-1.6,1.2-2.3c0.8-0.6,1.9-0.9,3.2-0.9c1.5,0,2.8,0.1,4.1,0.4c1.3,0.3,3.1,0.8,5.4,1.6l3.5-8.2
		c-1.7-1.2-3.8-2.1-6.2-2.7c-2.4-0.7-4.7-1-7-1c-3.3,0-6.2,0.6-8.7,1.7c-2.5,1.1-4.4,2.7-5.8,4.6c-1.4,1.9-2,4.2-2,6.6
		c0,2.3,0.7,4.5,2,6.3c1.3,1.9,2.8,3.4,4.5,4.6c1.7,1.2,4,2.6,7,4.4l2,1.2c1.7,1,2.9,1.8,3.7,2.4c0.8,0.5,1.2,1.1,1.2,1.7
		c0,0.9-0.5,1.7-1.6,2.5c-1.1,0.7-2.5,1.1-4.2,1.1c-1.6,0-3.4-0.3-5.5-0.9c-2.1-0.6-3.7-1.3-4.9-2L342.7,398.4z"/>
	<path class="st0" d="M378.7,398.4c1.7,1,4,1.9,6.8,2.6c2.9,0.7,5.5,1.1,7.8,1.1c3.6,0,6.7-0.6,9.4-1.7c2.7-1.2,4.8-2.7,6.2-4.7
		c1.4-2,2.2-4.3,2.2-6.8c0-2.3-0.7-4.4-2-6.2c-1.3-1.9-2.8-3.5-4.7-4.8c-1.8-1.4-4.1-2.9-6.9-4.5l-2.4-1.3c-1.6-0.8-2.7-1.5-3.4-2
		c-0.7-0.5-1-1.1-1-1.8c0-0.9,0.4-1.6,1.2-2.3c0.8-0.6,1.9-0.9,3.2-0.9c1.5,0,2.8,0.1,4.1,0.4c1.3,0.3,3.1,0.8,5.4,1.6l3.5-8.2
		c-1.7-1.2-3.8-2.1-6.2-2.7c-2.4-0.7-4.7-1-7-1c-3.3,0-6.2,0.6-8.7,1.7c-2.5,1.1-4.4,2.7-5.8,4.6c-1.4,1.9-2,4.2-2,6.6
		c0,2.3,0.7,4.5,2,6.3c1.3,1.9,2.8,3.4,4.5,4.6c1.7,1.2,4,2.6,7,4.4l2,1.2c1.7,1,2.9,1.8,3.7,2.4c0.8,0.5,1.2,1.1,1.2,1.7
		c0,0.9-0.5,1.7-1.6,2.5c-1.1,0.7-2.5,1.1-4.2,1.1c-1.6,0-3.4-0.3-5.5-0.9c-2.1-0.6-3.7-1.3-4.9-2L378.7,398.4z"/>
	<path class="st0" d="M437.4,355.1c-4.4,0-8.4,1-11.9,3.1c-3.5,2-6.2,4.8-8.2,8.4c-2,3.6-3,7.7-3,12.2c0,4.3,0.9,8.3,2.8,11.8
		c1.9,3.5,4.6,6.4,8,8.4c3.5,2,7.6,3.1,12.2,3.1c4.5,0,8.5-1,12-3c3.5-2,6.2-4.8,8.1-8.4c2-3.6,3-7.7,3-12.4c0-4.3-0.9-8.3-2.8-11.8
		c-1.8-3.5-4.5-6.3-8-8.4C446.3,356.1,442.2,355.1,437.4,355.1z M426.7,378.7c0-2.7,0.5-5,1.4-7c1-2.1,2.3-3.7,3.9-4.8
		c1.7-1.2,3.5-1.7,5.5-1.7c3.2,0,5.8,1.2,7.8,3.7c2,2.4,3,5.6,3,9.4c0,4.4-1,7.8-3.1,10.2c-2,2.3-4.6,3.5-7.8,3.5
		c-3.3,0-6-1.2-7.9-3.7C427.6,385.8,426.7,382.6,426.7,378.7z M441.1,352.5l7.5-13.2h-11.8l-4.3,11.8L441.1,352.5z"/>
	<path class="st0" d="M527.6,356l-12.8,45.2h-12l-7.4-28.4l-6.9,28.4h-12l-13.4-44.6l11.8-1.2l7.8,31.4l6.7-30.7h11.9l7.6,30.7
		l6.7-30.7H527.6z"/>
	<path class="st0" d="M560.4,401.2l-11.4-16.9l-3.5,3.3v13.6h-12V356h12v15.7l17.9-16.7l9.3,6.8l-15.2,14.3l18.1,25H560.4z"/>
</g>
<g id="napis">
	<path class="st0" d="M593.6,356l-16.8,45.2h11.9l3.1-8.9h15.4l3.2,9.6l11.8-1.2L605.6,356H593.6z M603.9,382.8h-8.7l4.3-12.3
		L603.9,382.8z"/>
	<path class="st0" d="M93.1,432.9H79.1v1.6h6v16.3h2.1v-16.3h6.2L93.1,432.9z"/>
	<path class="st0" d="M104,450.9l0-7.3l6.3-10.6h-2.2l-5.1,8.7l-5-9.1l-2,0.8l5.9,10.3v7.2H104z"/>
	<path class="st0" d="M125.8,443.2v5.7c-1,0.4-2,0.5-3.1,0.5c-1.3,0-2.4-0.3-3.5-0.9c-1-0.6-1.8-1.5-2.4-2.6
		c-0.6-1.1-0.9-2.4-0.9-3.9c0-1.6,0.3-2.9,1-4.1c0.7-1.2,1.5-2,2.6-2.6c1.1-0.6,2.3-0.9,3.5-0.9c0.8,0,1.5,0.1,2,0.2
		c0.5,0.1,1.1,0.3,1.8,0.6l0.7-1.5c-0.5-0.3-1.2-0.6-2.2-0.7c-0.9-0.2-1.7-0.3-2.3-0.3c-1.7,0-3.3,0.4-4.7,1.2
		c-1.4,0.8-2.5,1.9-3.3,3.3c-0.8,1.4-1.2,3-1.2,4.9c0,1.7,0.4,3.3,1.1,4.7c0.7,1.4,1.8,2.5,3.1,3.3c1.4,0.8,3,1.2,4.7,1.2
		c0.9,0,1.8-0.1,2.7-0.4c0.9-0.2,1.7-0.5,2.3-0.9l0-8.4h-5.8l-0.2,1.6H125.8z"/>
	<path class="st0" d="M140.9,432.5c-1.6,0-3.1,0.5-4.3,1.3c-1.3,0.8-2.3,1.9-3,3.4c-0.7,1.4-1.1,3-1.1,4.8c0,1.8,0.4,3.4,1.1,4.8
		c0.7,1.4,1.7,2.5,3,3.3c1.3,0.8,2.7,1.2,4.3,1.2c1.6,0,3.1-0.4,4.4-1.3c1.3-0.8,2.3-1.9,3-3.4c0.7-1.4,1.1-3,1.1-4.8
		c0-1.8-0.4-3.4-1.1-4.8c-0.7-1.4-1.7-2.5-3-3.3C144,432.9,142.5,432.5,140.9,432.5z M134.6,442c0-1.5,0.3-2.8,0.8-3.9
		c0.5-1.2,1.3-2.1,2.2-2.7c1-0.7,2.1-1,3.3-1c1.2,0,2.2,0.3,3.1,1c0.9,0.6,1.7,1.5,2.2,2.7c0.5,1.1,0.8,2.4,0.8,3.8
		c0,1.5-0.3,2.8-0.8,3.9c-0.5,1.2-1.3,2.1-2.3,2.7c-0.9,0.6-2,1-3.2,1c-1.2,0-2.2-0.3-3.2-0.9c-0.9-0.7-1.6-1.5-2.2-2.7
		C134.9,444.7,134.6,443.4,134.6,442z"/>
	<path class="st0" d="M161.1,450.9c1.7,0,3.2-0.4,4.3-1.2c1.2-0.8,2.1-1.9,2.7-3.2c0.6-1.4,0.9-2.9,0.9-4.7c0-2.6-0.6-4.8-1.9-6.4
		s-3.3-2.5-5.9-2.5H155v17.9H161.1z M161.4,434.7c1.9,0,3.3,0.6,4.2,1.9c1,1.3,1.4,3,1.4,5.2c0,1.5-0.2,2.8-0.7,3.9
		c-0.5,1.1-1.2,1.9-2.1,2.5c-0.9,0.6-1.9,0.9-3.1,0.9h-4.1v-14.4H161.4z"/>
	<path class="st0" d="M176.9,450.9v-14.1l0.7,1.2l9.1,12.9h1.7v-17.9h-2.1v13.9l-1.1-1.8l-8.7-12.1h-1.7v17.9H176.9z"/>
	<path class="st0" d="M197.4,450.9v-17.9h-2.1v17.9H197.4z"/>
	<path class="st0" d="M215.2,450.9l-6.7-8.6l-2,2.1v6.5h-2.1v-17.9h2.1v8.7l8.6-9.1l1.4,1.2l-6.7,7l7.9,10.1H215.2z"/>
	<path class="st0" d="M229.8,450c0.5,0.3,1.2,0.6,2.2,0.8c1,0.2,1.9,0.4,2.7,0.4c1.3,0,2.4-0.2,3.4-0.6c1-0.4,1.7-1,2.2-1.7
		c0.5-0.7,0.8-1.5,0.8-2.4c0-0.8-0.2-1.6-0.5-2.2c-0.4-0.6-0.9-1.2-1.6-1.6c-0.7-0.5-1.6-1-2.7-1.5c-1.2-0.6-2.2-1-2.8-1.4
		c-0.6-0.4-1.1-0.8-1.5-1.2c-0.3-0.5-0.5-1-0.5-1.6c0-0.8,0.3-1.5,1-2c0.7-0.5,1.6-0.7,2.8-0.7c0.8,0,1.4,0.1,1.9,0.2
		c0.5,0.2,1.1,0.4,1.8,0.7l0.7-1.6c-0.6-0.3-1.3-0.6-2.1-0.8c-0.8-0.2-1.6-0.3-2.4-0.3c-1.1,0-2.2,0.2-3,0.6c-0.9,0.4-1.5,0.9-2,1.6
		c-0.5,0.7-0.7,1.4-0.7,2.3c0,1.2,0.4,2.2,1.1,3c0.8,0.8,2,1.6,3.6,2.3c1.1,0.5,2,0.9,2.7,1.3c0.7,0.4,1.2,0.8,1.5,1.3
		c0.4,0.5,0.5,1,0.5,1.6c0,0.9-0.4,1.6-1.1,2.1c-0.7,0.5-1.8,0.8-3.2,0.8c-0.8,0-1.6-0.1-2.4-0.3c-0.8-0.2-1.5-0.5-2-0.8L229.8,450z
		"/>
	<path class="st0" d="M248.5,444.1h2.5c2,0,3.6-0.5,4.9-1.4c1.3-1,1.9-2.4,1.9-4.2c0-1.9-0.6-3.3-1.8-4.1c-1.2-0.9-2.8-1.3-4.8-1.3
		h-4.9v17.9h2.1V444.1z M251.3,434.7c1.5,0,2.6,0.3,3.3,0.9c0.8,0.6,1.1,1.5,1.1,2.9c0,1.3-0.5,2.3-1.3,2.9c-0.8,0.6-2,0.9-3.3,0.9
		h-2.6v-7.6H251.3z"/>
	<path class="st0" d="M270.5,432.5c-1.6,0-3.1,0.5-4.3,1.3c-1.3,0.8-2.3,1.9-3,3.4c-0.7,1.4-1.1,3-1.1,4.8c0,1.8,0.4,3.4,1.1,4.8
		c0.7,1.4,1.7,2.5,3,3.3c1.3,0.8,2.7,1.2,4.3,1.2c1.6,0,3.1-0.4,4.4-1.3c1.3-0.8,2.3-1.9,3-3.4c0.7-1.4,1.1-3,1.1-4.8
		c0-1.8-0.4-3.4-1.1-4.8c-0.7-1.4-1.7-2.5-3-3.3C273.5,432.9,272.1,432.5,270.5,432.5z M264.2,442c0-1.5,0.3-2.8,0.8-3.9
		c0.5-1.2,1.3-2.1,2.2-2.7c1-0.7,2.1-1,3.3-1c1.2,0,2.2,0.3,3.1,1c0.9,0.6,1.7,1.5,2.2,2.7c0.5,1.1,0.8,2.4,0.8,3.8
		c0,1.5-0.3,2.8-0.8,3.9c-0.5,1.2-1.3,2.1-2.3,2.7c-0.9,0.6-2,1-3.2,1c-1.2,0-2.2-0.3-3.2-0.9c-0.9-0.7-1.6-1.5-2.2-2.7
		C264.5,444.7,264.2,443.4,264.2,442z"/>
	<path class="st0" d="M284.4,450.9v-6.3l-1,0.8l-0.9-1.4l1.9-1.6v-9.5h2.1v7.7l3-2.5l0.9,1.3l-3.9,3.3v6.4h8.3l0.2,1.7H284.4z"/>
	<path class="st0" d="M310.6,450.9l-0.3-1.7h-8.5v-6.7h6.4l-0.2-1.6h-6.2v-6.4h7.9l-0.2-1.6h-9.8v17.9H310.6z"/>
	<path class="st0" d="M327.3,433.6c-0.5-0.3-1.2-0.6-2.1-0.7c-0.9-0.2-1.7-0.3-2.3-0.3c-1.7,0-3.2,0.4-4.5,1.2c-1.3,0.8-2.3,2-3,3.4
		c-0.7,1.4-1,3-1,4.8c0,1.7,0.3,3.2,0.9,4.6c0.6,1.4,1.6,2.5,2.8,3.3c1.2,0.8,2.7,1.2,4.5,1.2c0.8,0,1.6-0.1,2.5-0.3
		c0.9-0.2,1.6-0.4,2.2-0.7l-0.8-1.6c-0.5,0.2-1.1,0.4-1.8,0.6c-0.6,0.1-1.3,0.2-2.2,0.2c-1.2,0-2.3-0.3-3.2-1
		c-0.9-0.7-1.6-1.6-2.1-2.7c-0.5-1.1-0.7-2.4-0.7-3.8c0-1.5,0.3-2.8,0.8-3.9c0.5-1.2,1.3-2.1,2.2-2.7c1-0.6,2-1,3.2-1
		c0.8,0,1.5,0.1,2,0.2c0.5,0.1,1.1,0.3,1.8,0.6L327.3,433.6z"/>
	<path class="st0" d="M343.8,449.2H333l11.3-14.6l-0.2-1.6h-12.7l0.3,1.6H342l-11.3,14.6l0.2,1.7H344L343.8,449.2z"/>
	<path class="st0" d="M351.5,450.9v-14.1l0.7,1.2l9.1,12.9h1.7v-17.9h-2.1v13.9l-1.1-1.8l-8.7-12.1h-1.7v17.9H351.5z"/>
	<path class="st0" d="M375.8,450.9l0-7.3l6.3-10.6h-2.2l-5.1,8.7l-5-9.1l-2,0.8l5.9,10.3v7.2H375.8z"/>
	<path class="st0" d="M397.3,450.9v-17.9h-2.1v17.9H397.3z"/>
	<path class="st0" d="M422.9,449.2h-8.3v-16.3h-2.1v17.9h10.6L422.9,449.2z"/>
	<path class="st0" d="M430,450.9v-17.9h-2.1v17.9H430z"/>
	<path class="st0" d="M448.9,432.9h-14.1v1.6h6v16.3h2.1v-16.3h6.2L448.9,432.9z"/>
	<path class="st0" d="M464.8,450.9l-0.3-1.7H456v-6.7h6.4l-0.2-1.6H456v-6.4h7.9l-0.2-1.6H454v17.9H464.8z"/>
	<path class="st0" d="M469.9,450.9h2.1v-7.4h2.5c0.6,0,1.2,0,1.9-0.1l4.1,7.5h2.3l-4.6-8c1-0.4,1.7-1,2.3-1.8
		c0.6-0.8,0.9-1.8,0.9-2.9c0-1.8-0.6-3.1-1.8-4c-1.2-0.8-2.8-1.3-4.8-1.3h-4.9V450.9z M474.8,434.7c1.4,0,2.5,0.3,3.3,0.8
		c0.8,0.5,1.2,1.4,1.2,2.7c0,1.3-0.5,2.2-1.3,2.7c-0.8,0.5-2,0.8-3.3,0.8h-2.6v-7.1H474.8z"/>
	<path class="st0" d="M492,432.9l-6.6,17.9h2l1.9-5.1h7.6l2,5.3l2.1-0.3l-6.9-17.8H492z M496.2,444.1h-6.4l3.1-8.4L496.2,444.1z"/>
	<path class="st0" d="M517.3,433.6c-0.5-0.3-1.2-0.6-2.1-0.7c-0.9-0.2-1.7-0.3-2.3-0.3c-1.7,0-3.2,0.4-4.5,1.2c-1.3,0.8-2.3,2-3,3.4
		c-0.7,1.4-1,3-1,4.8c0,1.7,0.3,3.2,0.9,4.6c0.6,1.4,1.6,2.5,2.8,3.3c1.2,0.8,2.7,1.2,4.5,1.2c0.8,0,1.6-0.1,2.5-0.3
		c0.9-0.2,1.6-0.4,2.2-0.7l-0.8-1.6c-0.5,0.2-1.1,0.4-1.8,0.6c-0.6,0.1-1.3,0.2-2.2,0.2c-1.2,0-2.3-0.3-3.2-1
		c-0.9-0.7-1.6-1.6-2.1-2.7c-0.5-1.1-0.7-2.4-0.7-3.8c0-1.5,0.3-2.8,0.8-3.9c0.5-1.2,1.3-2.1,2.2-2.7c1-0.6,2-1,3.2-1
		c0.8,0,1.5,0.1,2,0.2c0.5,0.1,1.1,0.3,1.8,0.6L517.3,433.6z"/>
	<path class="st0" d="M533.3,450.9l-6.7-8.6l-2,2.1v6.5h-2.1v-17.9h2.1v8.7l8.6-9.1l1.4,1.2l-6.7,7l7.9,10.1H533.3z"/>
	<path class="st0" d="M542.7,450.9v-17.9h-2.1v17.9H542.7z"/>
</g>
</svg>
