<?xml version="1.0" encoding="utf-8"?>
<!-- Generator: Adobe Illustrator 23.0.1, SVG Export Plug-In . SVG Version: 6.00 Build 0)  -->
<svg version="1.1" id="wordpressowka" xmlns="http://www.w3.org/2000/svg" xmlns:xlink="http://www.w3.org/1999/xlink" x="0px"
	 y="0px" viewBox="0 0 216.9 278.7" style="enable-background:new 0 0 216.9 278.7;" xml:space="preserve">
<style type="text/css">
	.st0{fill:#4F557D;}
	.st1{fill:#FFFFFF;}
</style>
<g id="sygnet">
	<path id="sowka" class="st0" d="M192.8,56.3c-4.1-9.7-4.9-18.2-3-25.8c3.2-4.1,8.4-6.3,14.6-7.7c-4-0.8-7.8-1-11.5-0.7
		C197.4,13.7,205,6.5,214.5,0c-20.6,4.3-38.3,12.5-47.7,33.9C130.6,11.4,81.9,9.3,46.9,32.2C37.4,12.2,20,4.1,0,0
		c9.5,6.5,17.1,13.7,21.6,22.1c-3.6-0.4-7.4-0.1-11.2,0.7c5.9,1.3,11.1,3.4,14.2,7.3c2,8,1.2,16.9-3.4,27.3
		C-5.5,92.8-5.4,149,25,182.2c7.8,8.5,18.7,16.7,29.3,21.6c14.9,6.8,30,12.2,46.4,14.1c40.7,4.8,12.8,60.8,12.8,60.8
		c73.1-24.2,92-99.1,95.7-108v-0.1C224.9,121.6,215,82.8,192.8,56.3z"/>
	<g id="wordpress">
		<path class="st1" d="M48.1,117.5c0,22.9,13.4,42.7,32.9,52.2L53.2,94C49.9,101.1,48.1,109.1,48.1,117.5z"/>
		<path class="st1" d="M145.9,114.6c0-7.2-2.6-12.2-4.9-15.9c-2.9-4.8-5.8-8.8-5.8-13.6c0-5.4,4.1-10.3,9.8-10.3c0.3,0,0.5,0,0.8,0
			c-10.5-9.5-24.3-15.2-39.5-15.2c-20.4,0-38.3,10.3-48.8,26.1c1.3,0,2.6,0.1,3.8,0.1c6.1,0,15.5-0.8,15.5-0.8
			c3.2-0.1,3.6,4.4,0.4,4.8c0,0-3.2,0.4-6.7,0.5L91.7,153l12.8-38l-9.1-24.7c-3.2-0.1-6.1-0.5-6.1-0.5c-3.2-0.1-2.8-5,0.4-4.8
			c0,0,9.6,0.8,15.4,0.8c6.1,0,15.5-0.8,15.5-0.8c3.2-0.1,3.6,4.4,0.4,4.8c0,0-3.2,0.4-6.7,0.5l21.1,62.4l5.8-19.3
			C144,125.3,145.9,119.6,145.9,114.6z"/>
		<path class="st1" d="M107.5,122.6L90,173.1c5.3,1.6,10.8,2.4,16.5,2.4c6.9,0,13.3-1.2,19.4-3.3c-0.1-0.3-0.3-0.5-0.4-0.8
			L107.5,122.6z"/>
		<path class="st1" d="M157.7,89.6c0.3,1.8,0.4,3.8,0.4,6c0,5.9-1.1,12.5-4.5,20.8l-17.8,51.1c17.4-10.1,29-28.8,29-50.1
			C164.8,107.4,162.3,97.9,157.7,89.6z"/>
		<path class="st1" d="M106.5,49.9c-37.6,0-68.1,30.3-68.1,67.6s30.6,67.6,68.1,67.6c37.6,0,68.1-30.3,68.1-67.6
			C174.6,80.2,144,49.9,106.5,49.9z M106.5,181.9c-35.8,0-65-28.9-65-64.4c0-35.6,29.1-64.4,65-64.4c35.8,0,65,28.9,65,64.4
			C171.4,153,142.3,181.9,106.5,181.9z"/>
	</g>
</g>
</svg>
