<?xml version="1.0" encoding="utf-8"?>
<!-- Generator: Adobe Illustrator 23.0.1, SVG Export Plug-In . SVG Version: 6.00 Build 0)  -->
<svg version="1.1" id="wordpressowka-logo" xmlns="http://www.w3.org/2000/svg" xmlns:xlink="http://www.w3.org/1999/xlink" x="0px"
	 y="0px" viewBox="0 0 308 214" style="enable-background:new 0 0 308 214;" xml:space="preserve">
<style type="text/css">
	.st0{fill:#4F557D;}
	.st1{fill:#FFFFFF;}
</style>
<g id="sygnet">
	<path id="sowka" class="st0" d="M195.7,27.7c-2-4.8-2.4-9-1.5-12.7c1.6-2,4.2-3.1,7.2-3.8c-1.9-0.4-3.8-0.5-5.7-0.3
		c2.2-4.1,6-7.7,10.7-10.9c-10.1,2.1-18.9,6.2-23.5,16.7C165,5.6,141,4.6,123.7,15.9C119.1,6,110.5,2,100.6,0
		c4.7,3.2,8.5,6.8,10.7,10.9c-1.8-0.2-3.6-0.1-5.5,0.3c2.9,0.6,5.5,1.7,7,3.6c1,3.9,0.6,8.3-1.7,13.5c-13.2,17.5-13.1,45.2,1.9,61.6
		c3.8,4.2,9.2,8.3,14.4,10.6c7.3,3.4,14.8,6,22.9,7c20.1,2.4,6.3,30,6.3,30c36.1-11.9,45.4-48.9,47.2-53.3v-0.1
		C211.6,60,206.7,40.8,195.7,27.7z"/>
	<g id="wordpress">
		<path class="st1" d="M124.3,57.9c0,11.3,6.6,21.1,16.3,25.7l-13.7-37.3C125.2,49.8,124.3,53.8,124.3,57.9z"/>
		<path class="st1" d="M172.6,56.5c0-3.5-1.3-6-2.4-7.9c-1.4-2.4-2.9-4.3-2.9-6.7c0-2.6,2-5.1,4.8-5.1c0.1,0,0.3,0,0.4,0
			c-5.1-4.6-12-7.5-19.4-7.5c-10.1,0-18.9,5.1-24.1,12.9c0.7,0,1.3,0.1,1.9,0.1c3,0,7.7-0.4,7.7-0.4c1.6-0.1,1.8,2.2,0.2,2.4
			c0,0-1.6,0.2-3.3,0.3l10.5,31l6.3-18.8l-4.5-12.2c-1.6-0.1-3-0.3-3-0.3c-1.6-0.1-1.4-2.5,0.2-2.4c0,0,4.7,0.4,7.6,0.4
			c3,0,7.7-0.4,7.7-0.4c1.6-0.1,1.8,2.2,0.2,2.4c0,0-1.6,0.2-3.3,0.3l10.4,30.8l2.9-9.5C171.6,61.8,172.6,58.9,172.6,56.5z"/>
		<path class="st1" d="M153.6,60.4L145,85.3c2.6,0.8,5.3,1.2,8.1,1.2c3.4,0,6.6-0.6,9.6-1.6c-0.1-0.1-0.1-0.3-0.2-0.4L153.6,60.4z"
			/>
		<path class="st1" d="M178.4,44.2c0.1,0.9,0.2,1.9,0.2,3c0,2.9-0.5,6.2-2.2,10.3l-8.8,25.2c8.6-5,14.3-14.2,14.3-24.7
			C181.9,52.9,180.7,48.2,178.4,44.2z"/>
		<path class="st1" d="M153.1,24.6c-18.5,0-33.6,15-33.6,33.3c0,18.4,15.1,33.3,33.6,33.3c18.5,0,33.6-15,33.6-33.3
			C186.7,39.5,171.6,24.6,153.1,24.6z M153.1,89.7c-17.7,0-32-14.3-32-31.8s14.4-31.8,32-31.8s32,14.3,32,31.8
			S170.8,89.7,153.1,89.7z"/>
	</g>
</g>
<g id="napis">
	<path class="st0" d="M30.4,171.9l-6.9,22.5h-4.7l-3.6-13.4l-3.6,13.4H6.9L0,171.9h7l1.8,8.6l0.7,3.4l0.8-3.4l2.2-8.6h5.7l2.2,8.6
		l0.8,3.3l0.6-3.3l1.9-8.6H30.4z"/>
	<path class="st0" d="M54.5,183.1c0,6.9-5.3,11.6-11.8,11.6c-6.6,0-11.8-4.5-11.8-11.6c0-6.9,5.3-11.6,11.8-11.6
		C49.3,171.5,54.5,176,54.5,183.1z M48,183.1c0-3.6-2.2-6-5.5-6c-3.2,0-5.5,2.4-5.5,6s2.2,6,5.5,6C45.8,188.9,48,186.6,48,183.1z"/>
	<path class="st0" d="M77.6,193.8v0.4h-6.8c-0.5-0.5-0.9-1.2-1.3-2.2l-1.3-2.8c-0.6-1.5-1.6-2.2-3-2.2H64v7.3h-6.3v-22.3h8.9
		c6.1,0,9.7,2.5,9.7,6.7c0,2.9-2,5-4.7,6v0.1c1.3,0.5,2,1.2,2.8,3.1l1.3,2.8C76.2,192.1,76.8,192.8,77.6,193.8z M66.1,181.9
		c2.7,0,3.7-1.2,3.7-2.5c0-1.3-1.1-2.5-3.7-2.5h-2.1v4.9L66.1,181.9L66.1,181.9z"/>
	<path class="st0" d="M88.2,171.9c8.2,0,13.6,4.2,13.6,11.1c0,6.9-5.3,11.1-13.3,11.1h-8.9v-22.3L88.2,171.9L88.2,171.9z
		 M95.4,183.1c0-3.6-2.5-5.9-7.5-5.9h-2v11.7h2.2C93.1,188.8,95.4,186.5,95.4,183.1z"/>
	<path class="st0" d="M123.5,179.5c0,4.8-3.9,7.6-9.8,7.6h-2.5v6.9H105v-22.3h8.7C119.5,171.9,123.5,174.8,123.5,179.5z
		 M117.1,179.6c0-1.4-1.1-2.6-3.9-2.6h-2.1v5.1h2C116,182.1,117.1,181,117.1,179.6z"/>
	<path class="st0" d="M146.1,193.8v0.4h-6.8c-0.5-0.5-0.9-1.2-1.3-2.2l-1.3-2.8c-0.6-1.5-1.6-2.2-3-2.2h-1.3v7.3h-6.3v-22.3h8.9
		c6.1,0,9.7,2.5,9.7,6.7c0,2.9-2,5-4.7,6v0.1c1.3,0.5,2,1.2,2.8,3.1l1.3,2.8C144.7,192.1,145.2,192.8,146.1,193.8z M134.5,181.9
		c2.7,0,3.7-1.2,3.7-2.5c0-1.3-1.1-2.5-3.7-2.5h-2.1v4.9L134.5,181.9L134.5,181.9z"/>
	<path class="st0" d="M164.4,171.9v5.2h-10.1v3.2h8.9v5.2h-8.9v3.4h10.4v5.2H148v-22.3H164.4L164.4,171.9z"/>
	<path class="st0" d="M185,172.8l-1.8,5.2c-2.3-0.7-5.3-1.2-7.3-1.2s-2.9,0.5-2.9,1.3c0,0.9,0.7,1.3,4.2,2c5.9,1.2,8.3,3.5,8.3,6.9
		c0,4.3-3.4,7.4-9.9,7.4c-3.5,0-6.3-0.4-9.6-1.3l1.8-5.2c2.4,0.7,5.1,1.2,7.8,1.2c2.2,0,3.2-0.5,3.2-1.4c0-0.9-0.9-1.3-4.1-2
		c-6-1.2-8.3-3.1-8.3-7.2c0-4.3,3.6-7.1,9.3-7.1C178.9,171.5,182.2,171.9,185,172.8z"/>
	<path class="st0" d="M205.5,172.8l-1.8,5.2c-2.3-0.7-5.3-1.2-7.3-1.2c-2.1,0-2.9,0.5-2.9,1.3c0,0.9,0.7,1.3,4.2,2
		c5.9,1.2,8.3,3.5,8.3,6.9c0,4.3-3.4,7.4-9.9,7.4c-3.5,0-6.3-0.4-9.6-1.3l1.8-5.2c2.4,0.7,5.1,1.2,7.8,1.2c2.2,0,3.2-0.5,3.2-1.4
		c0-0.9-0.9-1.3-4.1-2c-6-1.2-8.3-3.1-8.3-7.2c0-4.3,3.6-7.1,9.3-7.1C199.5,171.5,202.7,171.9,205.5,172.8z"/>
	<path class="st0" d="M231.5,183.1c0,6.9-5.3,11.6-11.8,11.6c-6.6,0-11.8-4.5-11.8-11.6c0-6.9,5.3-11.6,11.8-11.6
		C226.3,171.5,231.5,176,231.5,183.1z M225.2,183.1c0-3.6-2.2-6-5.5-6c-3.2,0-5.5,2.4-5.5,6s2.2,6,5.5,6
		C222.9,189,225.2,186.6,225.2,183.1z M223.5,164.5l1.7,3.4l-7.3,3l-1.7-3.4L223.5,164.5z"/>
	<path class="st0" d="M262.4,171.9l-6.9,22.5h-4.7l-3.6-13.4l-3.6,13.4H239l-6.9-22.5h7l1.8,8.6l0.7,3.4l0.8-3.4l2.2-8.6h5.7
		l2.2,8.6l0.8,3.3l0.6-3.3l1.9-8.6H262.4z"/>
	<path class="st0" d="M272.8,185.4l-2.1,2.5v6.4h-6.3v-22.3h6.3v8.6l7.1-8.6h6.9l-7.7,9l8.5,13.3h-7.1L272.8,185.4z"/>
	<path class="st0" d="M299.9,191.1h-6.7l-1.1,3.2h-6.5l8.7-22.4h5l8.7,22.4h-7L299.9,191.1z M296.5,180.7l-2.1,5.7h4.2L296.5,180.7z
		"/>
	<path class="st0" d="M37.4,205.1v-0.7h7.2v0.7h-3.1v8.7h-0.8v-8.7H37.4z"/>
	<path class="st0" d="M52.9,204.4l-3.2,5.4v4h-0.8v-4l-3.2-5.4h0.9l1.6,2.7l1.2,2l1.2-2l1.6-2.7H52.9z"/>
	<path class="st0" d="M61.2,204.8l-0.3,0.7c-0.8-0.4-1.6-0.4-2.5-0.4c-2.2,0-3.9,1.5-3.9,4.1c0,2.6,1.7,4.1,3.9,4.1
		c0.9,0,1.7-0.2,2.4-0.4v-2.7h-2.5v-0.7h3.3v3.9c-1,0.4-2.2,0.6-3.2,0.6c-2.6,0-4.7-1.9-4.7-4.9c0-3,2.1-4.9,4.7-4.9
		C59.5,204.2,60.3,204.4,61.2,204.8z"/>
	<path class="st0" d="M72.7,209.1c0,3-2.1,4.9-4.5,4.9c-2.4,0-4.5-1.9-4.5-4.9c0-3,2-4.9,4.5-4.9C70.7,204.2,72.7,206.1,72.7,209.1z
		 M71.9,209.1c0-2.6-1.6-4.1-3.6-4.1c-2,0-3.6,1.5-3.6,4.1c0,2.6,1.6,4.1,3.6,4.1C70.3,213.2,71.9,211.7,71.9,209.1z"/>
	<path class="st0" d="M77.9,204.4c3,0,5.1,1.9,5.1,4.7s-2.1,4.7-5.1,4.7h-2.7v-9.4H77.9L77.9,204.4z M82.2,209.1c0-2.4-1.7-4-4.3-4
		h-1.8v7.9h1.8C80.5,213.1,82.2,211.5,82.2,209.1z"/>
	<path class="st0" d="M92.8,204.4v9.5h-0.5l-4.6-6.1l-1.3-1.8v2v6h-0.8v-9.5h0.5l4.7,6.4l1.1,1.5v-1.7v-6.2H92.8L92.8,204.4z"/>
	<path class="st0" d="M96.7,204.4v9.4h-0.8v-9.4H96.7z"/>
	<path class="st0" d="M101.9,209.1l-1.3,1.4v3.3h-0.8v-9.4h0.8v5.2l4.8-5.2h0.9l-3.9,4.2l4.2,5.2h-1L101.9,209.1z"/>
	<path class="st0" d="M118,204.8l-0.3,0.7c-0.8-0.3-1.5-0.4-2.3-0.4c-1.3,0-2.1,0.6-2.1,1.7c0,0.9,0.5,1.5,2.1,2
		c2.2,0.5,3,1.4,3,2.8c0,1.5-1.3,2.6-3.3,2.6c-1.1,0-2.1-0.2-3.1-0.5l0.3-0.7c0.9,0.4,2,0.5,2.9,0.5c1.5,0,2.4-0.8,2.4-1.8
		c0-0.9-0.6-1.5-2.5-2c-2.1-0.5-2.7-1.4-2.7-2.7c0-1.5,1.2-2.5,3-2.5C116.3,204.2,117.1,204.4,118,204.8z"/>
	<path class="st0" d="M127.4,207.2c0,1.7-1.4,2.8-3.6,2.8h-1.9v3.8h-0.8v-9.4h2.7C125.8,204.4,127.4,205.6,127.4,207.2z
		 M126.5,207.2c0-1.2-1.1-2-2.8-2h-1.9v4.2h1.9C125.5,209.3,126.5,208.4,126.5,207.2z"/>
	<path class="st0" d="M138,209.1c0,3-2.1,4.9-4.5,4.9s-4.5-1.9-4.5-4.9c0-3,2-4.9,4.5-4.9C136,204.2,138,206.1,138,209.1z
		 M137.1,209.1c0-2.6-1.6-4.1-3.6-4.1s-3.6,1.5-3.6,4.1c0,2.6,1.6,4.1,3.6,4.1S137.1,211.7,137.1,209.1z"/>
	<path class="st0" d="M145.9,213.1v0.7h-5.4v-5l-0.9,0.4l-0.3-0.6l1.2-0.4v-3.6h0.8v3.4l1.8-0.7l0.3,0.6l-2.1,0.8v4.5H145.9
		L145.9,213.1z"/>
	<path class="st0" d="M154,204.4v0.7h-4.8v3.5h4.3v0.7h-4.3v3.7h5v0.7h-5.8v-9.4L154,204.4L154,204.4z"/>
	<path class="st0" d="M163.5,204.8l-0.3,0.7c-0.7-0.3-1.4-0.4-2.4-0.4c-2.1,0-3.8,1.5-3.8,4.1c0,2.6,1.7,4.1,3.8,4.1
		c0.9,0,1.8-0.2,2.4-0.4l0.3,0.6c-0.8,0.4-1.7,0.5-2.8,0.5c-2.5,0-4.6-1.9-4.6-4.9c0-3,2.1-4.9,4.6-4.9
		C161.9,204.2,162.8,204.4,163.5,204.8z"/>
	<path class="st0" d="M165.2,213.2l5.7-8.1h-5.3v-0.7h6.3v0.5l-5.7,8.1h5.7v0.7h-6.7V213.2z"/>
	<path class="st0" d="M181.6,204.4v9.5h-0.5l-4.6-6.1l-1.3-1.8v2v6h-0.8v-9.5h0.5l4.7,6.4l1.1,1.5v-1.7v-6.2H181.6L181.6,204.4z"/>
	<path class="st0" d="M190.9,204.4l-3.2,5.4v4h-0.8v-4l-3.2-5.4h0.9l1.6,2.7l1.2,2l1.2-2l1.6-2.7H190.9z"/>
	<path class="st0" d="M197.6,204.4v9.4h-0.8v-9.4H197.6z"/>
	<path class="st0" d="M205.3,204.4v8.7h4.6v0.7h-5.4v-9.4H205.3L205.3,204.4z"/>
	<path class="st0" d="M213.2,204.4v9.4h-0.8v-9.4H213.2z"/>
	<path class="st0" d="M215.2,205.1v-0.7h7.2v0.7h-3.1v8.7h-0.8v-8.7H215.2z"/>
	<path class="st0" d="M230.2,204.4v0.7h-4.8v3.5h4.3v0.7h-4.3v3.7h5v0.7h-5.8v-9.4L230.2,204.4L230.2,204.4z"/>
	<path class="st0" d="M239.6,213.7h-0.9c-0.4-0.4-0.5-0.8-0.8-1.3l-0.6-1.4c-0.4-1-1.1-1.3-1.9-1.3h-1.7v4.1h-0.8v-9.4h2.6
		c2.2,0,3.6,1,3.6,2.7c0,1.2-1,2.1-2.3,2.4v0.1c0.4,0.2,0.8,0.6,1.2,1.4l0.6,1.4C238.9,212.8,239.1,213.3,239.6,213.7z M238.3,207
		c0-1.2-1-1.9-2.8-1.9h-1.8v3.9h1.6C237.1,209,238.3,208.2,238.3,207z"/>
	<path class="st0" d="M246.6,211.6h-4.4l-0.8,2.2h-0.8l3.4-9.5h0.7l3.4,9.5h-0.8L246.6,211.6z M243.7,207.5l-1.3,3.4h3.9l-1.3-3.4
		l-0.6-2.1L243.7,207.5z"/>
	<path class="st0" d="M256.7,204.8l-0.3,0.7c-0.7-0.3-1.4-0.4-2.4-0.4c-2.1,0-3.8,1.5-3.8,4.1c0,2.6,1.7,4.1,3.8,4.1
		c0.9,0,1.8-0.2,2.4-0.4l0.3,0.6c-0.8,0.4-1.7,0.5-2.8,0.5c-2.5,0-4.6-1.9-4.6-4.9c0-3,2.1-4.9,4.6-4.9
		C255,204.2,255.9,204.4,256.7,204.8z"/>
	<path class="st0" d="M261.2,209.1l-1.3,1.4v3.3H259v-9.4h0.8v5.2l4.8-5.2h0.9l-3.9,4.2l4.2,5.2h-1L261.2,209.1z"/>
	<path class="st0" d="M269,204.4v9.4h-0.8v-9.4H269z"/>
</g>
</svg>
